<svg xmlns="http://www.w3.org/2000/svg" viewBox="0 0 385.47 298.64"><defs><style>.cls-1{fill:#fff;}</style></defs><g id="Layer_2" data-name="Layer 2"><g id="Layer_1-2" data-name="Layer 1"><path class="cls-1" d="M377.77,259.56c-1.14-.89-23.42-17.84-63.85-24.47q-7.32,7.24-14.55,13.42c28,2.71,48.18,11.17,59.25,17-13.37,7.09-40,17.94-77.65,17.94a185.64,185.64,0,0,1-29.84-2.37,167,167,0,0,1-22.66-5.29c20.89-9.16,47.87-25,75.13-52.29C360.17,167,367.68,111.59,368,109.26l1.21-9.67-9.69,1.21c-2.24.27-52.87,7.15-106.74,57.11-.3,8.07-.92,15.79-1.8,23.13,1.61-1.71,3.26-3.42,5-5.14,38.31-38.32,76.4-52.63,94.53-57.62-5,18.13-19.3,56.21-57.62,94.53-22.62,22.62-45.16,36.87-63.55,45.79a196.57,196.57,0,0,1-19.79,8.3c.74-1.4,1.52-2.9,2.29-4.48h0c11.23-22.51,25.56-61.92,25.56-116.43,0-87.63-37-136.25-38.6-138.28l-6-7.7-6,7.7c-1.58,2-38.6,50.65-38.6,138.28,0,3.13,0,6.2.15,9.21l.51.52q8.64,8.64,15.79,17.19c-.81-8.45-1.29-17.44-1.29-26.92,0-42.88,9.64-75.66,17.69-95.59a186.39,186.39,0,0,1,11.74-24.11,188.24,188.24,0,0,1,11.71,24.11c8.08,19.93,17.69,52.71,17.69,95.59,0,42-9.21,74.26-17.17,94.3-.17.44-.34.87-.52,1.29-1.15,2.86-2.31,5.54-3.46,8.06-1.05,2.31-2.09,4.47-3.08,6.46-.15.31-.3.59-.43.86-.44.87-.87,1.7-1.29,2.5-.32-1-.68-2.11-1.06-3.22-.1-.31-.21-.63-.33-1-.22-.69-.47-1.37-.72-2.07-1.17-3.28-2.54-6.82-4.13-10.56-1-2.29-2-4.64-3.16-7.09-9.43-20.15-24.9-45.16-50.13-70.39C80.16,108.59,24.8,101.09,22.47,100.8l-9.69-1.21L14,109.26c.3,2.27,7.43,55,60.33,110.11,6.12-.91,12.62-1.59,19.52-1.93-1.57-1.5-3.16-3.06-4.73-4.63-38.32-38.32-52.63-76.4-57.62-94.53,18.12,5,56.21,19.3,94.51,57.62a240.19,240.19,0,0,1,39,50.62c3.79,6.65,6.92,12.95,9.5,18.73-16.33-6.5-39.87-12.8-70-12.8-61.24,0-95.38,26-96.8,27.11l-7.7,6,7.7,6c.09.08.34.27.72.55,2.69,2,12.42,8.61,28.62,14.74l1.43.55c15.71,5.8,37.25,11,64.11,11.26a181.25,181.25,0,0,0,39.14-4.38,156.41,156.41,0,0,0,32.68-11.17c-1.67-1.35-3.2-2.69-4.68-4a60.77,60.77,0,0,0-5.43-4.47c-.39-.27-.79-.53-1.23-.78a164.16,164.16,0,0,1-25,6.63,183.79,183.79,0,0,1-33.52,3,174.92,174.92,0,0,1-62-10.9,136.84,136.84,0,0,1-15.6-7c13.23-7,39.41-17.68,76.47-17.89.38,0,.78,0,1.18,0A188,188,0,0,1,142,251.41c5.48,1.16,10.92,2.63,16.28,4.25,5.1,1.51,10.28,3.43,14.68,6.5,4.19,2.92,7.73,6.62,11.75,9.74,6.54,5.08,14.22,8.72,21.77,12a161.34,161.34,0,0,0,21,7.49A195.6,195.6,0,0,0,281,298.64c61.21,0,95.38-26,96.8-27.12l7.7-6Z"/></g></g></svg>