<svg xmlns="http://www.w3.org/2000/svg" viewBox="0 0 399.9 566.9"><defs><style>.cls-1{fill:#fff;}</style></defs><g id="Layer_2" data-name="Layer 2"><g id="Layer_1-2" data-name="Layer 1"><path class="cls-1" d="M27.9,437a43.1,43.1,0,0,1-14.6-10.1l10.2-12.6a25.7,25.7,0,0,0,5.1,4.8,32.1,32.1,0,0,0,5.4,3.4,25.7,25.7,0,0,0,5.5,1.9,19.8,19.8,0,0,0,5.3.7,17.2,17.2,0,0,0,6.8-1.2,8.8,8.8,0,0,0,4.2-3.2,8.1,8.1,0,0,0,1.3-4.7,9,9,0,0,0-.6-3.4,10.1,10.1,0,0,0-1.6-2.6,16.7,16.7,0,0,0-3-2.2l-4.1-1.9a55.9,55.9,0,0,0-5.6-2l-5.5-2.1a46.8,46.8,0,0,1-5.3-2.4,42.3,42.3,0,0,1-4.9-2.9,25.5,25.5,0,0,1-4.1-3.5,22.4,22.4,0,0,1-3.3-4.3,22.6,22.6,0,0,1-2-5.2,23.8,23.8,0,0,1,2.8-18.7,26.1,26.1,0,0,1,10-8.9,32,32,0,0,1,13.9-3.3c10.4-.1,20,3.5,28.9,10.8l-9.8,12.8c-6.9-5.6-13.1-8.4-18.7-8.4a11.1,11.1,0,0,0-7.4,2.3,7.6,7.6,0,0,0-2.9,6.3,7.2,7.2,0,0,0,.6,2.9,8.7,8.7,0,0,0,1.6,2.3,9.7,9.7,0,0,0,3,2.1l3.9,2,5.3,2.1a134.6,134.6,0,0,1,14.2,6.1c5.4,2.9,8.9,6.5,10.7,10.8a26.5,26.5,0,0,1-.2,19.2,22,22,0,0,1-4.8,7.5,28,28,0,0,1-7,5.1,31.8,31.8,0,0,1-8.1,3,41.2,41.2,0,0,1-8.6.9A41.8,41.8,0,0,1,27.9,437Z"/><path class="cls-1" d="M164.9,353.6h17v70.7h38.2v15.1H164.9Z"/><path class="cls-1" d="M310.1,353.6h28.4a50.9,50.9,0,0,1,18.3,3.2,40.3,40.3,0,0,1,14.1,8.8,38.3,38.3,0,0,1,8.9,13.6,47.8,47.8,0,0,1,3.2,17.5,46.3,46.3,0,0,1-3.1,17.3,37.7,37.7,0,0,1-8.6,13.5,38.4,38.4,0,0,1-14,8.8,51.7,51.7,0,0,1-18.5,3.1H310.1Zm27.7,70.7a30.3,30.3,0,0,0,11.3-2.2,24.2,24.2,0,0,0,8.7-5.8,25.5,25.5,0,0,0,5.6-8.7,30.2,30.2,0,0,0,2-10.9,31.2,31.2,0,0,0-3.4-14.4,25.8,25.8,0,0,0-9.5-9.9,26.2,26.2,0,0,0-13.7-3.6H326.9v55.5Z"/><path class="cls-1" d="M43.4,565.2a40.8,40.8,0,0,1-12-5.5,41.4,41.4,0,0,1-9.5-8.7,38.1,38.1,0,0,1-6.3-12.2,47.4,47.4,0,0,1-2.3-15.4,53.2,53.2,0,0,1,1.8-14,40.2,40.2,0,0,1,5.5-12.1,42,42,0,0,1,8.8-9.5,39.1,39.1,0,0,1,12.2-6.3,50.1,50.1,0,0,1,15.3-2.2,44,44,0,0,1,12,1.6,44.3,44.3,0,0,1,22.2,14.8L78.6,506.3a33.6,33.6,0,0,0-9.6-7.9,25.5,25.5,0,0,0-12.1-3,24.8,24.8,0,0,0-6.1.7,19.9,19.9,0,0,0-5.5,1.9,19.5,19.5,0,0,0-4.8,3,22.8,22.8,0,0,0-4,4.2,37.2,37.2,0,0,0-3,5.2,27.2,27.2,0,0,0-1.8,6.1,31.1,31.1,0,0,0-.7,6.9,30,30,0,0,0,3.3,14.2,23.9,23.9,0,0,0,9.2,9.7,25.1,25.1,0,0,0,13.4,3.5A25.1,25.1,0,0,0,69,547.9a29.5,29.5,0,0,0,9.6-7.9l12.5,10.7a44.5,44.5,0,0,1-14.6,11.8,43.8,43.8,0,0,1-19.6,4.4A54.3,54.3,0,0,1,43.4,565.2Z"/><path class="cls-1" d="M223.6,528.3c3,3.7,4.5,8.4,4.5,14a24,24,0,0,1-1.8,9.5,20.4,20.4,0,0,1-5.1,7.5,24.6,24.6,0,0,1-8.7,5,38.9,38.9,0,0,1-12.3,1.7H164.7V480.3h31c9.1,0,16,1.7,20.8,5.3s7.2,8.8,7.2,15.6a21.3,21.3,0,0,1-1.3,7.6,19.9,19.9,0,0,1-4.1,6.7,20.8,20.8,0,0,1-7.5,4.9v.2C216.3,522,220.6,524.5,223.6,528.3Zm-42.2-12.9h12.2a18.1,18.1,0,0,0,6.3-1,10.1,10.1,0,0,0,4.7-3.4,8.5,8.5,0,0,0,1.9-5.7,10,10,0,0,0-1.4-5.3,9.8,9.8,0,0,0-4.6-3.4,21.2,21.2,0,0,0-8.1-1.3h-11Zm21.7,34.5a11.9,11.9,0,0,0,5.3-3.6,9.7,9.7,0,0,0,2-6.1,9.6,9.6,0,0,0-3.9-8.1c-2.6-2-6.3-3-11.2-3H181.4v22h13.7A24.1,24.1,0,0,0,203.1,549.9Z"/><path class="cls-1" d="M310.1,480.3h28.4a50.9,50.9,0,0,1,18.3,3.1,40.5,40.5,0,0,1,14.1,8.9,37.4,37.4,0,0,1,8.9,13.6,46.8,46.8,0,0,1,3.2,17.4,45.9,45.9,0,0,1-3.1,17.3,39,39,0,0,1-8.6,13.6,39.6,39.6,0,0,1-14,8.7,51.7,51.7,0,0,1-18.5,3.1H310.1Zm27.7,70.6a30.3,30.3,0,0,0,11.3-2.1,25.5,25.5,0,0,0,8.7-5.8,26,26,0,0,0,5.6-8.8,30.2,30.2,0,0,0,2-10.9A30.5,30.5,0,0,0,362,509a25.4,25.4,0,0,0-9.5-10,27.1,27.1,0,0,0-13.7-3.5H326.9v55.4Z"/><path class="cls-1" d="M391.9,269.3c-1.2-1-24.3-18.6-66.3-25.4-5,5-10.1,9.6-15,13.9,29,2.8,49.9,11.6,61.4,17.6-13.9,7.4-41.4,18.7-80.5,18.7a193.6,193.6,0,0,1-31-2.5,163.1,163.1,0,0,1-23.5-5.5c21.7-9.5,49.7-26,77.9-54.2,58.7-58.7,66.5-116.1,66.8-118.6l1.3-10-10.1,1.3c-2.3.2-54.8,7.4-110.7,59.2-.3,8.4-1,16.4-1.9,24l5.2-5.3c39.8-39.8,79.3-54.6,98.1-59.8-5.2,18.8-20,58.3-59.8,98.1-23.5,23.4-46.8,38.2-65.9,47.4-7.6,3.7-14.6,6.5-20.5,8.7l2.3-4.7h0c11.7-23.3,26.5-64.2,26.5-120.8,0-90.9-38.4-141.3-40-143.4L200,0l-6.2,8c-1.6,2.1-40,52.5-40,143.4,0,3.3,0,6.5.1,9.6l.5.5c6,6,11.5,12,16.4,17.9-.8-8.8-1.3-18.1-1.3-28,0-44.5,10-78.5,18.3-99.1a196,196,0,0,1,12.2-25,196,196,0,0,1,12.2,25c8.3,20.6,18.3,54.6,18.3,99.1s-9.5,77.1-17.8,97.9a6.9,6.9,0,0,0-.5,1.3c-1.2,3-2.4,5.7-3.6,8.3l-3.2,6.8a5.6,5.6,0,0,1-.5.8l-1.3,2.6c-.3-1-.7-2.1-1.1-3.3l-.3-1-.8-2.1c-1.2-3.4-2.6-7.1-4.3-11-1-2.4-2.1-4.8-3.3-7.3-9.7-21-25.8-46.9-52-73.1C83.1,112.6,25.7,104.9,23.3,104.6l-10-1.3,1.2,10c.3,2.4,7.7,57.1,62.6,114.3a177.1,177.1,0,0,1,20.2-2l-4.9-4.8C52.7,181,37.8,141.5,32.7,122.7c18.8,5.2,58.3,20,98,59.8A246.9,246.9,0,0,1,171.1,235a210.8,210.8,0,0,1,9.9,19.4c-16.9-6.7-41.4-13.3-72.6-13.3-63.5,0-98.9,27-100.4,28.2l-8,6.1,8,6.3.7.5c2.8,2.1,12.9,9,29.7,15.3l1.5.6c16.3,6,38.6,11.4,66.5,11.7a184.6,184.6,0,0,0,40.6-4.6,158.6,158.6,0,0,0,33.9-11.6l-4.8-4.1a70.3,70.3,0,0,0-5.7-4.7l-1.2-.8a170.1,170.1,0,0,1-26,6.9,191,191,0,0,1-34.8,3.2A181.9,181.9,0,0,1,44,282.7a129.9,129.9,0,0,1-16.2-7.3c13.8-7.2,40.9-18.3,79.4-18.5h1.2a192.6,192.6,0,0,1,38.9,3.9c5.7,1.2,11.3,2.7,16.9,4.4s10.7,3.6,15.2,6.7,8.1,6.9,12.2,10.2c6.8,5.2,14.8,9,22.6,12.4a168.5,168.5,0,0,0,21.8,7.8,200.1,200.1,0,0,0,55.5,7.5c63.5,0,98.9-27,100.4-28.1l8-6.3Z"/></g></g></svg>