<svg xmlns="http://www.w3.org/2000/svg" xmlns:xlink="http://www.w3.org/1999/xlink" viewBox="0 0 385.5 298.6"><defs><style>.cls-1{fill:url(#linear-gradient);}</style><linearGradient id="linear-gradient" x1="192.73" x2="192.73" y2="298.64" gradientUnits="userSpaceOnUse"><stop offset="0" stop-color="#d7e7c2"/><stop offset="1" stop-color="#71be94"/></linearGradient></defs><g id="Layer_2" data-name="Layer 2"><g id="Layer_1-2" data-name="Layer 1"><path class="cls-1" d="M377.8,259.6c-1.2-.9-23.4-17.9-63.9-24.5-4.9,4.8-9.7,9.3-14.5,13.4,28,2.7,48.1,11.2,59.2,17-13.3,7.1-39.9,18-77.6,18a182,182,0,0,1-29.9-2.4,164.2,164.2,0,0,1-22.6-5.3c20.9-9.1,47.8-25,75.1-52.3,56.6-56.6,64.1-111.9,64.4-114.2l1.2-9.7-9.7,1.2c-2.2.3-52.9,7.2-106.7,57.1-.3,8.1-1,15.8-1.8,23.1,1.6-1.7,3.2-3.4,5-5.1,38.3-38.3,76.4-52.6,94.5-57.6-5,18.1-19.3,56.2-57.6,94.5-22.6,22.6-45.2,36.9-63.6,45.8a170.9,170.9,0,0,1-19.8,8.3c.8-1.4,1.5-2.9,2.3-4.5h0c11.2-22.5,25.6-61.9,25.6-116.4,0-87.6-37-136.3-38.6-138.3l-6-7.7-6,7.7c-1.6,2-38.6,50.7-38.6,138.3,0,3.1.1,6.2.2,9.2.1.2.3.3.5.5,5.7,5.8,11,11.5,15.8,17.2-.8-8.5-1.3-17.4-1.3-26.9,0-42.9,9.6-75.7,17.7-95.6a182.9,182.9,0,0,1,11.7-24.1,182.9,182.9,0,0,1,11.7,24.1c8.1,19.9,17.7,52.7,17.7,95.6S213,220.2,205,240.3a6.9,6.9,0,0,1-.5,1.3c-1.1,2.8-2.3,5.5-3.4,8l-3.1,6.5a5.6,5.6,0,0,1-.5.8c-.4.9-.8,1.8-1.2,2.5-.4-1-.7-2.1-1.1-3.2l-.3-.9a17.2,17.2,0,0,1-.7-2.1q-1.8-4.9-4.2-10.5c-.9-2.3-2-4.7-3.1-7.1-9.5-20.2-24.9-45.2-50.2-70.4C80.2,108.6,24.8,101.1,22.5,100.8l-9.7-1.2,1.2,9.7c.3,2.2,7.4,55,60.3,110.1,6.1-.9,12.6-1.6,19.5-2l-4.7-4.6c-38.3-38.3-52.6-76.4-57.6-94.5,18.1,5,56.2,19.3,94.5,57.6a242,242,0,0,1,39,50.6c3.8,6.7,6.9,13,9.5,18.7-16.3-6.5-39.9-12.7-70-12.7-61.2,0-95.4,25.9-96.8,27.1L0,265.5l7.7,6,.7.6c2.7,1.9,12.4,8.6,28.6,14.7l1.5.6c15.7,5.8,37.2,11,64.1,11.2a178.6,178.6,0,0,0,39.1-4.4,157.4,157.4,0,0,0,32.7-11.1l-4.7-4a64.2,64.2,0,0,0-5.4-4.5l-1.2-.8a169.8,169.8,0,0,1-25.1,6.7,186.9,186.9,0,0,1-33.5,3c-26.4,0-47.3-5.3-62.1-10.9a152.2,152.2,0,0,1-15.6-7.1c13.3-7,39.5-17.7,76.5-17.9h1.2a188.4,188.4,0,0,1,37.5,3.8c5.5,1.2,10.9,2.6,16.3,4.3s10.3,3.4,14.7,6.5,7.7,6.6,11.7,9.7c6.6,5.1,14.3,8.7,21.8,12a161.6,161.6,0,0,0,21,7.5,194.9,194.9,0,0,0,53.5,7.2c61.2,0,95.3-26,96.8-27.1l7.7-6Z"/></g></g></svg>