<svg xmlns="http://www.w3.org/2000/svg" viewBox="0 0 333.4 262.1"><defs><style>.cls-1{fill:#fff;}</style></defs><g id="Layer_2" data-name="Layer 2"><g id="Layer_1-2" data-name="Layer 1"><path class="cls-1" d="M298.9,67.4c0,2.8-.1,5.7-.2,8.6a175.7,175.7,0,0,1-5.9,39.6c-19.6,74.6-82,150-186.7,146.4C68.3,260.7,29,243.4,0,223.7c5.2.8,76.6-6.9,100.1-23.9-23.2,2.5-53.3-21.4-60.9-47.9a63.8,63.8,0,0,0,12.5,1.6,69.9,69.9,0,0,0,17.8-1.7C22.5,133.6,17.7,93.7,18,85.3v-.8a69.5,69.5,0,0,0,30,9.3C7.7,56.9,19.4,12.5,25.5,3c31.6,41,85,71,140.5,75.7a75.1,75.1,0,0,1-1.2-15.1C166.1,27.2,197.1-1.2,234.1,0a67,67,0,0,1,48.1,22.6c15.4-2.5,26.9-6.1,40.1-13.2-5.6,15.3-13.6,26.4-27.7,34.1a135.6,135.6,0,0,0,38.8-9A134.9,134.9,0,0,1,298.9,67.4Z"/></g></g></svg>