<svg xmlns="http://www.w3.org/2000/svg" viewBox="0 0 295.1 295.1"><defs><style>.cls-1{fill:#fff;}</style></defs><g id="Layer_2" data-name="Layer 2"><g id="Layer_1-2" data-name="Layer 1"><path class="cls-1" d="M147.6,69.9a77.7,77.7,0,1,0,77.6,77.6A77.7,77.7,0,0,0,147.6,69.9Zm37.9,115.6a53.1,53.1,0,0,1-37.9,15.8,53.8,53.8,0,1,1,53.7-53.8A53.2,53.2,0,0,1,185.5,185.5ZM228.4,54.6a12.1,12.1,0,1,0,12.1,12.1A12.1,12.1,0,0,0,228.4,54.6Zm0,0a12.1,12.1,0,1,0,12.1,12.1A12.1,12.1,0,0,0,228.4,54.6ZM147.6,69.9a77.7,77.7,0,1,0,77.6,77.6A77.7,77.7,0,0,0,147.6,69.9Zm37.9,115.6a53.1,53.1,0,0,1-37.9,15.8,53.8,53.8,0,1,1,53.7-53.8A53.2,53.2,0,0,1,185.5,185.5ZM212.7,0H82.4A82.5,82.5,0,0,0,0,82.4V212.7a82.5,82.5,0,0,0,82.4,82.4H212.7a82.5,82.5,0,0,0,82.4-82.4V82.4A82.5,82.5,0,0,0,212.7,0Zm58.5,212.7a58.5,58.5,0,0,1-58.5,58.5H82.4a58.5,58.5,0,0,1-58.5-58.5V82.4A58.5,58.5,0,0,1,82.4,23.9H212.7a58.5,58.5,0,0,1,58.5,58.5ZM228.4,54.6a12.1,12.1,0,1,0,12.1,12.1A12.1,12.1,0,0,0,228.4,54.6ZM147.6,69.9a77.7,77.7,0,1,0,77.6,77.6A77.7,77.7,0,0,0,147.6,69.9Zm37.9,115.6a53.1,53.1,0,0,1-37.9,15.8,53.8,53.8,0,1,1,53.7-53.8A53.2,53.2,0,0,1,185.5,185.5Z"/></g></g></svg>