<svg xmlns="http://www.w3.org/2000/svg" xmlns:xlink="http://www.w3.org/1999/xlink" viewBox="0 0 598.7 425.2"><defs><style>.cls-1{fill:#d7e7c2;}.cls-2{fill:#6fbe94;}.cls-3{fill:url(#linear-gradient);}</style><linearGradient id="linear-gradient" x1="293.83" x2="293.83" y2="298.64" gradientUnits="userSpaceOnUse"><stop offset="0" stop-color="#d7e7c2"/><stop offset="1" stop-color="#71be94"/></linearGradient></defs><g id="Layer_2" data-name="Layer 2"><g id="Layer_1-2" data-name="Layer 1"><path class="cls-1" d="M14.1,422A44.3,44.3,0,0,1,0,412.2l9.8-12.1a31,31,0,0,0,5,4.6,29.2,29.2,0,0,0,5.2,3.2,24.2,24.2,0,0,0,5.3,1.9,22.2,22.2,0,0,0,5.1.6,18.2,18.2,0,0,0,6.6-1.1,9.2,9.2,0,0,0,4-3.1,7.7,7.7,0,0,0,1.3-4.5,8.8,8.8,0,0,0-.6-3.3,10.4,10.4,0,0,0-1.5-2.5,14.5,14.5,0,0,0-2.9-2.1l-4-1.9L27.9,390l-5.3-2a54.5,54.5,0,0,1-5.1-2.3c-1.8-1-3.4-1.9-4.7-2.8a30.2,30.2,0,0,1-4-3.4,19.5,19.5,0,0,1-5.1-9.2,23.7,23.7,0,0,1-.8-6.1,21.8,21.8,0,0,1,3.5-11.9,24.7,24.7,0,0,1,9.6-8.5,29.1,29.1,0,0,1,13.4-3.2c10-.2,19.3,3.3,27.9,10.4l-9.4,12.3c-6.7-5.4-12.7-8.1-18.1-8.1a10.8,10.8,0,0,0-7.1,2.2,7.6,7.6,0,0,0-2.8,6.1,6.7,6.7,0,0,0,.6,2.8,7.8,7.8,0,0,0,1.5,2.2,10.3,10.3,0,0,0,2.9,2,26.9,26.9,0,0,0,3.8,1.9c1.2.6,3,1.3,5.1,2.1,6.9,2.7,11.5,4.6,13.7,5.9,5.2,2.8,8.6,6.2,10.3,10.4a22.1,22.1,0,0,1,1.6,8.9,24.9,24.9,0,0,1-1.8,9.6,20.3,20.3,0,0,1-4.6,7.2,28.1,28.1,0,0,1-6.8,4.9,28.3,28.3,0,0,1-7.8,2.9,38.4,38.4,0,0,1-8.3.9A42.3,42.3,0,0,1,14.1,422Z"/><path class="cls-1" d="M101.3,341.5h16.4v68.1h36.8v14.6H101.3Z"/><path class="cls-1" d="M200.3,341.5h27.3a50.6,50.6,0,0,1,17.7,3.1,37,37,0,0,1,22.2,21.6,49,49,0,0,1,.1,33.5,37.8,37.8,0,0,1-8.4,13.1,37.3,37.3,0,0,1-13.4,8.4,50.9,50.9,0,0,1-17.9,3H200.3Zm26.6,68.1a29.4,29.4,0,0,0,10.9-2,23.6,23.6,0,0,0,13.8-14.1,27.6,27.6,0,0,0,1.9-10.5,28.7,28.7,0,0,0-3.3-13.8,23.4,23.4,0,0,0-9.1-9.6,25.5,25.5,0,0,0-13.2-3.4H216.4v53.4Z"/><path class="cls-2" d="M341.5,423.4a37.9,37.9,0,0,1-11.6-5.2,40.4,40.4,0,0,1-9.1-8.4,35.6,35.6,0,0,1-6.1-11.8,46.9,46.9,0,0,1-2.3-14.8,50,50,0,0,1,1.8-13.5,38.9,38.9,0,0,1,5.3-11.7,41.4,41.4,0,0,1,8.5-9.2,37.5,37.5,0,0,1,11.8-6,46.4,46.4,0,0,1,14.8-2.2,44.9,44.9,0,0,1,11.5,1.6,42.4,42.4,0,0,1,11.3,5.2,45.8,45.8,0,0,1,10.1,9.1l-12,10.2a31.8,31.8,0,0,0-9.4-7.6,24.5,24.5,0,0,0-11.5-2.9,29.1,29.1,0,0,0-6,.6,25.4,25.4,0,0,0-9.9,4.8,20.5,20.5,0,0,0-3.8,4,22.5,22.5,0,0,0-2.9,5,27.1,27.1,0,0,0-1.8,5.9,35.3,35.3,0,0,0-.7,6.7,28.7,28.7,0,0,0,3.2,13.6,22.5,22.5,0,0,0,8.9,9.4,26,26,0,0,0,24.6.6,31.1,31.1,0,0,0,9.3-7.6l12,10.3a42.2,42.2,0,0,1-14.1,11.3,40.3,40.3,0,0,1-18.8,4.3A46.6,46.6,0,0,1,341.5,423.4Z"/><path class="cls-2" d="M482.2,387.9a20.9,20.9,0,0,1,4.4,13.5,24.7,24.7,0,0,1-1.7,9.2,19.1,19.1,0,0,1-5,7.2,21.3,21.3,0,0,1-8.4,4.8,38.1,38.1,0,0,1-11.8,1.7H425.5V341.6h29.9c8.8,0,15.4,1.7,20.1,5.2s6.9,8.4,6.9,15a22.4,22.4,0,0,1-1.2,7.3,17.9,17.9,0,0,1-4.1,6.4,18.4,18.4,0,0,1-7.1,4.7v.3C475.3,381.8,479.4,384.3,482.2,387.9Zm-40.6-12.4h11.7a20.1,20.1,0,0,0,6.2-1,10.6,10.6,0,0,0,4.5-3.3,8.5,8.5,0,0,0,1.8-5.5,9.3,9.3,0,0,0-1.4-5.1,9,9,0,0,0-4.4-3.3,22.1,22.1,0,0,0-7.8-1.2H441.6Zm20.9,33.2a10,10,0,0,0,5.1-3.5,8.8,8.8,0,0,0,1.9-5.8,9.4,9.4,0,0,0-3.7-7.9c-2.5-1.9-6.1-2.8-10.8-2.8H441.6v21.2h13.2A22.6,22.6,0,0,0,462.5,408.7Z"/><path class="cls-2" d="M528.5,341.6h27.3a47.7,47.7,0,0,1,17.7,3.1,37,37,0,0,1,13.6,8.5,36,36,0,0,1,8.6,13.1,49,49,0,0,1,.1,33.5,35.8,35.8,0,0,1-8.3,13,36.6,36.6,0,0,1-13.5,8.5,50.4,50.4,0,0,1-17.8,3H528.5Zm26.6,68.1a28.4,28.4,0,0,0,11-2.1,23.4,23.4,0,0,0,8.4-5.6,22.7,22.7,0,0,0,5.3-8.4,28.4,28.4,0,0,0,1.9-10.5,28.7,28.7,0,0,0-3.2-13.8,24.1,24.1,0,0,0-9.1-9.6,25.5,25.5,0,0,0-13.2-3.4H544.6v53.4Z"/><path class="cls-3" d="M478.9,259.6c-1.2-.9-23.4-17.9-63.9-24.5-4.9,4.8-9.7,9.3-14.5,13.4,28,2.7,48.1,11.2,59.2,17-13.3,7.1-39.9,18-77.6,18a182,182,0,0,1-29.9-2.4,164.2,164.2,0,0,1-22.6-5.3c20.9-9.1,47.8-25,75.1-52.3,56.6-56.6,64.1-111.9,64.4-114.2l1.2-9.7-9.7,1.2c-2.2.3-52.9,7.2-106.7,57.1-.3,8.1-1,15.8-1.8,23.1,1.6-1.7,3.2-3.4,5-5.1,38.3-38.3,76.4-52.6,94.5-57.6-5,18.1-19.3,56.2-57.6,94.5-22.6,22.6-45.2,36.9-63.6,45.8a170.9,170.9,0,0,1-19.8,8.3c.8-1.4,1.5-2.9,2.3-4.5h0c11.2-22.5,25.6-61.9,25.6-116.4,0-87.6-37-136.3-38.6-138.3l-6-7.7-6,7.7c-1.6,2-38.6,50.7-38.6,138.3,0,3.1.1,6.2.2,9.2.1.2.3.3.5.5,5.7,5.8,11,11.5,15.8,17.2-.8-8.5-1.3-17.4-1.3-26.9,0-42.9,9.6-75.7,17.7-95.6a182.9,182.9,0,0,1,11.7-24.1,182.9,182.9,0,0,1,11.7,24.1c8.1,19.9,17.7,52.7,17.7,95.6s-9.2,74.2-17.2,94.3a6.9,6.9,0,0,1-.5,1.3c-1.1,2.8-2.3,5.5-3.4,8l-3.1,6.5a5.6,5.6,0,0,1-.5.8c-.4.9-.8,1.8-1.2,2.5-.4-1-.7-2.1-1.1-3.2l-.3-.9a17.2,17.2,0,0,1-.7-2.1q-1.8-4.9-4.2-10.5c-.9-2.3-2-4.7-3.1-7.1-9.5-20.2-24.9-45.2-50.2-70.4-56.5-56.6-111.9-64.1-114.2-64.4l-9.7-1.2,1.2,9.7c.3,2.2,7.4,55,60.3,110.1,6.1-.9,12.6-1.6,19.5-2l-4.7-4.6c-38.3-38.3-52.6-76.4-57.6-94.5,18.1,5,56.2,19.3,94.5,57.6a242,242,0,0,1,39,50.6c3.8,6.7,6.9,13,9.5,18.7-16.3-6.5-39.9-12.7-70-12.7-61.2,0-95.4,25.9-96.8,27.1l-7.7,5.9,7.7,6,.7.6c2.7,1.9,12.4,8.6,28.6,14.7l1.5.6c15.7,5.8,37.2,11,64.1,11.2a178.6,178.6,0,0,0,39.1-4.4,157.4,157.4,0,0,0,32.7-11.1l-4.7-4a64.2,64.2,0,0,0-5.4-4.5l-1.2-.8a169.8,169.8,0,0,1-25.1,6.7,186.9,186.9,0,0,1-33.5,3c-26.4,0-47.3-5.3-62.1-10.9a152.2,152.2,0,0,1-15.6-7.1c13.3-7,39.5-17.7,76.5-17.9h1.2a188.4,188.4,0,0,1,37.5,3.8c5.5,1.2,10.9,2.6,16.3,4.3s10.3,3.4,14.7,6.5,7.7,6.6,11.7,9.7c6.6,5.1,14.3,8.7,21.8,12a161.6,161.6,0,0,0,21,7.5,194.9,194.9,0,0,0,53.5,7.2c61.2,0,95.3-26,96.8-27.1l7.7-6Z"/></g></g></svg>